<svg width="128" height="128" viewBox="0 0 128 128" fill="none" xmlns="http://www.w3.org/2000/svg">
  <!-- Background gradient circle -->
  <defs>
    <radialGradient id="bgGradient" cx="0.3" cy="0.3" r="0.8">
      <stop offset="0%" stop-color="#f0f9ff"/>
      <stop offset="100%" stop-color="#e0f2fe"/>
    </radialGradient>
    <radialGradient id="eyeGradient" cx="0.3" cy="0.3" r="0.8">
      <stop offset="0%" stop-color="#38bdf8"/>
      <stop offset="100%" stop-color="#0ea5e9"/>
    </radialGradient>
    <radialGradient id="pupilGradient" cx="0.4" cy="0.4" r="0.6">
      <stop offset="0%" stop-color="#475569"/>
      <stop offset="100%" stop-color="#1e293b"/>
    </radialGradient>
  </defs>
  
  <!-- Background circle -->
  <circle cx="64" cy="64" r="60" fill="url(#bgGradient)" stroke="#0ea5e9" stroke-width="4"/>
  
  <!-- Eye shape -->
  <ellipse cx="64" cy="64" rx="45" ry="25" fill="url(#eyeGradient)" stroke="#075985" stroke-width="3"/>
  
  <!-- Iris -->
  <circle cx="64" cy="64" r="18" fill="url(#pupilGradient)"/>
  
  <!-- Iris details -->
  <circle cx="64" cy="64" r="20" fill="none" stroke="#334155" stroke-width="1" opacity="0.3"/>
  <circle cx="64" cy="64" r="15" fill="none" stroke="#64748b" stroke-width="0.8" opacity="0.4"/>
  <circle cx="64" cy="64" r="10" fill="none" stroke="#94a3b8" stroke-width="0.6" opacity="0.5"/>
  
  <!-- Pupil -->
  <circle cx="64" cy="64" r="8" fill="#0f172a"/>
  
  <!-- Main highlight -->
  <circle cx="68" cy="58" r="4" fill="#ffffff" opacity="0.9"/>
  <circle cx="70" cy="56" r="2" fill="#ffffff" opacity="0.7"/>
  <circle cx="66" cy="60" r="1.5" fill="#ffffff" opacity="0.5"/>
  
  <!-- Zen symbol at top -->
  <circle cx="64" cy="16" r="4" fill="#22c55e"/>
  <circle cx="64" cy="16" r="6" fill="none" stroke="#22c55e" stroke-width="1" opacity="0.6"/>
  <circle cx="64" cy="16" r="8" fill="none" stroke="#22c55e" stroke-width="0.8" opacity="0.3"/>
  
  <!-- Zen dot inside -->
  <circle cx="64" cy="16" r="1.5" fill="#ffffff"/>
  
  <!-- Upper eyelashes -->
  <g stroke="#075985" stroke-width="2" stroke-linecap="round">
    <path d="M25 45 L20 40"/>
    <path d="M30 40 L25 35"/>
    <path d="M35 38 L32 33"/>
    <path d="M40 37 L38 32"/>
    <path d="M103 45 L108 40"/>
    <path d="M98 40 L103 35"/>
    <path d="M93 38 L96 33"/>
    <path d="M88 37 L90 32"/>
  </g>
  
  <!-- Lower eyelashes -->
  <g stroke="#075985" stroke-width="2" stroke-linecap="round">
    <path d="M25 83 L20 88"/>
    <path d="M30 88 L25 93"/>
    <path d="M35 90 L32 95"/>
    <path d="M40 91 L38 96"/>
    <path d="M103 83 L108 88"/>
    <path d="M98 88 L103 93"/>
    <path d="M93 90 L96 95"/>
    <path d="M88 91 L90 96"/>
  </g>
  
  <!-- Decorative elements -->
  <g fill="#22c55e" opacity="0.6">
    <circle cx="20" cy="20" r="2"/>
    <circle cx="108" cy="20" r="2"/>
    <circle cx="20" cy="108" r="2"/>
    <circle cx="108" cy="108" r="2"/>
  </g>
  
  <!-- Subtle glow effect -->
  <circle cx="64" cy="64" r="45" fill="none" stroke="#38bdf8" stroke-width="1" opacity="0.3"/>
</svg>